<svg xmlns="http://www.w3.org/2000/svg" viewBox="0 0 284 315.5" enable-background="new 0 0 284 315.5"><path stroke="#000" stroke-width="9" stroke-miterlimit="10" d="M279.5 225.9c0 5.5-3.9 12.2-8.7 14.9l-120.1 68.2c-4.8 2.7-12.6 2.7-17.4 0l-120.1-68.2c-4.8-2.7-8.7-9.4-8.7-14.9v-136.2c0-5.5 3.9-12.2 8.7-14.9l120.1-68.3c4.8-2.7 12.6-2.7 17.4 0l120.1 68.2c4.8 2.7 8.7 9.4 8.7 14.9v136.3z" fill="none"/><path d="M175 124.7c9.3 8.5 14 20.4 14 35.6 0 15.2-4.5 27.3-13.6 36.1-9.1 8.9-23 13.3-41.7 13.3h-33.5v-97.9h34.6c17.4.1 30.8 4.3 40.2 12.9zm-16.1 58.2c5.4-5 8.1-12.4 8.1-22s-2.7-17-8.1-22.2c-5.4-5.2-13.6-7.8-24.7-7.8h-12.2v59.5h13.9c10 0 17.7-2.5 23-7.5z" fill="#000"/></svg>
